HIERARCHY
ROOT Hips
{
	OFFSET 0.00 0.00 0.00
	CHANNELS 6 Xposition Yposition Zposition Zrotation Xrotation Yrotation
	JOINT Spine
	{
		OFFSET 0.00 10.00 0.00
		CHANNELS 3 Zrotation Xrotation Yrotation
		JOINT Chest
		{
			OFFSET 0.00 10.00 0.00
			CHANNELS 3 Zrotation Xrotation Yrotation
			JOINT Neck
			{
				OFFSET 0.00 10.00 0.00
				CHANNELS 3 Zrotation Xrotation Yrotation
				JOINT Head
				{
					OFFSET 0.00 5.00 0.00
					CHANNELS 3 Zrotation Xrotation Yrotation
					End Site
					{
						OFFSET 0.00 2.00 0.00
					}
				}
			}
			JOINT LeftShoulder
			{
				OFFSET 0.00 10.00 0.00
				CHANNELS 3 Zrotation Xrotation Yrotation
				JOINT LeftArm
				{
					OFFSET 0.00 10.00 0.00
					CHANNELS 3 Zrotation Xrotation Yrotation
					JOINT LeftForeArm
					{
						OFFSET 0.00 10.00 0.00
						CHANNELS 3 Zrotation Xrotation Yrotation
						JOINT LeftHand
						{
							OFFSET 0.00 5.00 0.00
							CHANNELS 3 Zrotation Xrotation Yrotation
							End Site
							{
								OFFSET 0.00 2.00 0.00
							}
						}
					}
				}
			}
			JOINT RightShoulder
			{
				OFFSET 0.00 10.00 0.00
				CHANNELS 3 Zrotation Xrotation Yrotation
				JOINT RightArm
				{
					OFFSET 0.00 10.00 0.00
					CHANNELS 3 Zrotation Xrotation Yrotation
					JOINT RightForeArm
					{
						OFFSET 0.00 10.00 0.00
						CHANNELS 3 Zrotation Xrotation Yrotation
						JOINT RightHand
						{
							OFFSET 0.00 5.00 0.00
							CHANNELS 3 Zrotation Xrotation Yrotation
							End Site
							{
								OFFSET 0.00 2.00 0.00
							}
						}
					}
				}
			}
		}
	}
	JOINT LeftUpLeg
	{
		OFFSET 0.00 10.00 0.00
		CHANNELS 3 Zrotation Xrotation Yrotation
		JOINT LeftLeg
		{
			OFFSET 0.00 10.00 0.00
			CHANNELS 3 Zrotation Xrotation Yrotation
			JOINT LeftFoot
			{
				OFFSET 0.00 10.00 0.00
				CHANNELS 3 Zrotation Xrotation Yrotation
				JOINT LeftToe
				{
					OFFSET 0.00 5.00 0.00
					CHANNELS 3 Zrotation Xrotation Yrotation
					End Site
					{
						OFFSET 0.00 2.00 0.00
					}
				}
			}
		}
	}
	JOINT RightUpLeg
	{
		OFFSET 0.00 10.00 0.00
		CHANNELS 3 Zrotation Xrotation Yrotation
		JOINT RightLeg
		{
			OFFSET 0.00 10.00 0.00
			CHANNELS 3 Zrotation Xrotation Yrotation
			JOINT RightFoot
			{
				OFFSET 0.00 10.00 0.00
				CHANNELS 3 Zrotation Xrotation Yrotation
				JOINT RightToe
				{
					OFFSET 0.00 5.00 0.00
					CHANNELS 3 Zrotation Xrotation Yrotation
					End Site
					{
						OFFSET 0.00 2.00 0.00
					}
				}
			}
		}
	}
}
MOTION
Frames: 9
Frame Time: 0.03333333333333333
0.096770 -0.168343 0.059711 0.000000 -98.255331 -6.647179 0.000000 0.000000 0.000000 0.000000 -134.491228 -22.647151 0.000000 0.000000 0.000000 0.000000 116.368447 -0.800453 0.000000 178.526717 -8.702469 0.000000 -104.140583 47.300691 0.000000 0.000000 0.000000 0.000000 126.890218 -60.144237 0.000000 -28.413636 -51.251329 0.000000 -144.597456 -63.824963 0.000000 0.000000 0.000000 0.000000 89.011245 -9.416001 0.000000 55.124881 -6.946815 0.000000 81.272830 -9.004165 0.000000 0.000000 0.000000 0.000000 70.595229 8.427569 0.000000 47.889718 13.982454 0.000000 132.783071 38.394436 0.000000 0.000000 0.000000 0.000000 0.000000 0.000000
0.090861 -0.175627 0.062246 0.000000 -94.832702 -8.329025 0.000000 0.000000 0.000000 0.000000 -136.220422 -23.137134 0.000000 0.000000 0.000000 0.000000 100.374224 -9.644678 0.000000 -155.887229 -18.527001 0.000000 -83.840452 21.703566 0.000000 0.000000 0.000000 0.000000 135.217815 -64.734864 0.000000 -36.245881 -59.971735 0.000000 -151.513375 -58.440888 0.000000 0.000000 0.000000 0.000000 90.527774 -13.223132 0.000000 56.090856 -5.037272 0.000000 81.376341 -6.871264 0.000000 0.000000 0.000000 0.000000 72.374547 7.945135 0.000000 47.430339 14.287715 0.000000 132.568675 29.346588 0.000000 0.000000 0.000000 0.000000 0.000000 0.000000
0.091920 -0.180305 0.057754 0.000000 -95.693579 -8.668917 0.000000 0.000000 0.000000 0.000000 -136.299820 -23.541163 0.000000 0.000000 0.000000 0.000000 101.806878 -10.372026 0.000000 -137.921031 -10.837445 0.000000 -108.789583 24.905066 0.000000 0.000000 0.000000 0.000000 141.239749 -65.560607 0.000000 -35.035230 -58.129157 0.000000 -151.135112 -61.711103 0.000000 0.000000 0.000000 0.000000 95.988428 -16.360151 0.000000 59.579083 -3.298745 0.000000 75.171960 -6.495709 0.000000 0.000000 0.000000 0.000000 71.917241 7.244522 0.000000 46.863427 15.057598 0.000000 133.331383 24.124061 0.000000 0.000000 0.000000 0.000000 0.000000 0.000000
0.094473 -0.184454 0.057103 0.000000 -95.795600 -8.426505 0.000000 0.000000 0.000000 0.000000 -136.030932 -22.847811 0.000000 0.000000 0.000000 0.000000 105.287932 -10.549753 0.000000 -140.720253 -7.863479 0.000000 -99.741841 24.945131 0.000000 0.000000 0.000000 0.000000 138.466442 -67.101214 0.000000 -42.684239 -61.944161 0.000000 -152.603802 -57.014313 0.000000 0.000000 0.000000 0.000000 95.593989 -17.121507 0.000000 57.568375 -3.260654 0.000000 72.792126 -6.277744 0.000000 0.000000 0.000000 0.000000 71.951638 6.411129 0.000000 46.351034 15.802029 0.000000 136.026216 21.378528 0.000000 0.000000 0.000000 0.000000 0.000000 0.000000
0.094827 -0.187610 0.060565 0.000000 -95.482635 -8.447971 0.000000 0.000000 0.000000 0.000000 -136.128789 -23.217455 0.000000 0.000000 0.000000 0.000000 99.481277 -8.745598 0.000000 -133.834790 -6.136996 0.000000 -84.439445 30.857030 0.000000 0.000000 0.000000 0.000000 136.947422 -66.697480 0.000000 -44.968470 -64.326507 0.000000 -152.963181 -56.167699 0.000000 0.000000 0.000000 0.000000 97.546901 -18.227389 0.000000 57.307771 -3.055413 0.000000 68.182177 -6.288278 0.000000 0.000000 0.000000 0.000000 73.464526 6.246903 0.000000 45.661064 15.913361 0.000000 134.905262 20.390882 0.000000 0.000000 0.000000 0.000000 0.000000 0.000000
0.094223 -0.188675 0.066629 0.000000 -95.509623 -8.316580 0.000000 0.000000 0.000000 0.000000 -136.135788 -23.031637 0.000000 0.000000 0.000000 0.000000 102.136057 -9.053383 0.000000 -140.433459 -6.426466 0.000000 -91.102773 30.761839 0.000000 0.000000 0.000000 0.000000 138.110856 -66.382368 0.000000 -49.149272 -64.604647 0.000000 -153.745289 -55.974016 0.000000 0.000000 0.000000 0.000000 101.749405 -18.554693 0.000000 57.919802 -3.087604 0.000000 73.242333 -4.821251 0.000000 0.000000 0.000000 0.000000 74.057297 6.353401 0.000000 45.399391 15.767251 0.000000 133.746562 21.358625 0.000000 0.000000 0.000000 0.000000 0.000000 0.000000
0.076850 -0.178666 0.088917 0.000000 -97.019748 -6.883766 0.000000 0.000000 0.000000 0.000000 -136.876224 -18.860021 0.000000 0.000000 0.000000 0.000000 104.451522 -3.967475 0.000000 167.664891 -11.479859 0.000000 -113.775473 49.973554 0.000000 0.000000 0.000000 0.000000 117.750647 -43.297274 0.000000 -81.105260 -71.624015 0.000000 -157.275289 -54.709544 0.000000 0.000000 0.000000 0.000000 100.049258 -17.683466 0.000000 51.733021 -3.163129 0.000000 81.616706 -6.972141 0.000000 0.000000 0.000000 0.000000 74.593140 7.838976 0.000000 46.365613 14.115628 0.000000 143.497500 21.862684 0.000000 0.000000 0.000000 0.000000 0.000000 0.000000
0.088993 -0.176699 0.112669 0.000000 -95.421403 -5.011720 0.000000 0.000000 0.000000 0.000000 -137.706929 -17.838321 0.000000 0.000000 0.000000 0.000000 109.539754 -16.763391 0.000000 166.330212 3.777962 0.000000 -159.525766 59.031726 0.000000 0.000000 0.000000 0.000000 112.893749 -23.014618 0.000000 -100.484156 -65.940328 0.000000 -152.400395 -51.660301 0.000000 0.000000 0.000000 0.000000 97.671258 -15.539375 0.000000 48.659365 -4.152674 0.000000 84.426391 -8.258015 0.000000 0.000000 0.000000 0.000000 77.202375 9.264535 0.000000 48.274147 14.013833 0.000000 143.871723 23.285403 0.000000 0.000000 0.000000 0.000000 0.000000 0.000000
0.092840 -0.173594 0.126727 0.000000 -95.115275 -3.592841 0.000000 0.000000 0.000000 0.000000 -136.826969 -16.915784 0.000000 0.000000 0.000000 0.000000 117.807198 -30.553802 0.000000 -171.312939 0.826835 0.000000 -126.359864 33.543342 0.000000 0.000000 0.000000 0.000000 113.093299 -7.837579 0.000000 -129.251054 -69.381532 0.000000 -157.022606 -55.471453 0.000000 0.000000 0.000000 0.000000 93.431727 -13.509190 0.000000 46.335785 -4.546243 0.000000 87.372821 -12.244846 0.000000 0.000000 0.000000 0.000000 78.191956 9.420527 0.000000 49.071659 13.461866 0.000000 145.535603 22.677381 0.000000 0.000000 0.000000 0.000000 0.000000 0.000000
